{"title":"Anal Buffet 5 XXX 2010 HDTV 1080p x264-squirtTV","uid":6943716,"size":4362394395,"categoryP":"porn","categoryS":"hd___movies","magnet":"?xt=urn:btih:36dbe99f4f3c1001fb6fb3d601232803eb55b7cc&amp;dn=Anal+Buffet+5+XXX+2010+HDTV+1080p+x264-squirtTV&amp;tr=udp%3A%2F%2Ftracker.openbittorrent.com%3A80&amp;tr=udp%3A%2F%2Fopen.demonii.com%3A1337&amp;tr=udp%3A%2F%2Ftracker.coppersurfer.tk%3A6969&amp;tr=udp%3A%2F%2Fexodus.desync.com%3A6969","seeders":0,"leechers":1,"uploader":"PoOoP12","files":2,"time":1326137791,"description":"All Sex, Anal\n--------------\n\nDirector: Jay Sin \nStarring: Tori Black, Alexis Texas, Kid Jamaica, Alysa, Omar Galanti, Roxy, Anita Hengher, Isabel Clark, Lioness, Sexy, Henessy, Markus, Cler, Wildassholeslut \n\nJay Sin's Anal Buffet 5 continues the Sin tradition of creative anal perversions, with plenty of girl-on-girl ass-licking and massive sex toys as well as big-dicked sodomy and anal gaping. We begin with the American beauties: brunette ...    Full Descriptionstunner Tori Black and heroically proportioned blonde Alexis Texas, who go at each other with an escalating series of anal invasions, using toys and tongues to expand their backdoor horizons. Fans of Jay's anal-lesbian niche will find plenty to explore, watching Alexis get off while her huge, sumptuous ass is plowed with a big, red sex toy, then rimmed deeply by lovely Tori. In perhaps the most strangely compelling scene, lollipop-licking teen Henessy uses a massive, clear vacuum pump to suction her cunt three sizes larger. It even pulls a variety of sex toys out of her engorged pussy, and is put to even nastier use when Euro-stud Kid Jamaica primes her puffy asshole for his large black cock. A truly perverse session of boundary-testing butt play ends with a classic cum facial. Next, inventively twisted brunette Anita Hengher teases us with pussy and ass insertions before being joined by fishnet-wearing brunette Roxy. The girls enjoy the full-bodied flavor of female ass, then are joined by two well-hung butthole bangers who take this dirty foursome to the next level of hell (or heaven)! Anita gets double-penetrated and takes a load in the face from each stud. Not to worry - Roxy helps with the cleanup. When we meet sultry brunettes Lioness and Cler, they could almost be sisters, dressed in animal prints and greasing up their asses before they mouth-fuck each other's flowering bungholes and jam a large, black toy up Cler's backdoor. Bald beast Omar Galanti joins the oral jamboree and plows his fat cock up these sluts' rectums. The filthy brute dumps his load on their pretty faces. We see pale goth slut Isabel Clark in a flowing white dress, which she uses, as a sex toy by dousing it with baby oil. After enticing us with butt-flossing tricks and stuffing a yard of greasy dress fabric up her anus, she takes on a pair of big-dicked black invaders who actually fuck Isabel's yawning asshole at the same time! She even gets a second double-ass reaming by a second duo who take over after the black guys have splattered Isabel's face with spunk. This girl has an amazing capacity! Finally, the DVD includes a bonus scene with sexy Alysa, fast becoming a legend for her incredible anal acrobatics. Alysa partners with slim Romanian beauty Wildassholeslut, no slouch herself in the colonic (and naming) department. The girls are joined - literally - by a massive, double-headed rubber dildo the size of a komodo dragon, which invades and stretches their buttholes to new and exciting dimensions. Don't miss it!\n\nAnal.Buffet.5.XXX.2010.HDTV.1080p.x264-squirtTV\nFormat : Matroska\nFile size : 4.06 GiB\nDuration : 1h 29mn\nOverall bit rate : 6 499 Kbps\nWriting application : HandBrake 4375svn\nWriting library : libmkv 0.6.5\n\nVideo\nFormat : AVC\nFormat/Info : Advanced Video Codec\nFormat profile : &lt;a class=&quot;__cf_email__&quot; href=&quot;/cdn-cgi/l/email-protection&quot; data-cfemail=&quot;4008292728000c746e71&quot;&gt;[email&amp;#160;protected]&lt;/a&gt;&lt;script cf-hash='f9e31' type=&quot;text/javascript&quot;&gt;\n/* &lt;![CDATA[ */!function(){try{var t=&quot;currentScript&quot;in document?document.currentScript:function(){for(var t=document.getElementsByTagName(&quot;script&quot;),e=t.length;e--;)if(t[e].getAttribute(&quot;cf-hash&quot;))return t[e]}();if(t&amp;&amp;t.previousSibling){var e,r,n,i,c=t.previousSibling,a=c.getAttribute(&quot;data-cfemail&quot;);if(a){for(e=&quot;&quot;,r=parseInt(a.substr(0,2),16),n=2;a.length-n;n+=2)i=parseInt(a.substr(n,2),16)^r,e+=String.fromCharCode(i);e=document.createTextNode(e),c.parentNode.replaceChild(e,c)}}}catch(u){}}();/* ]]&gt; */&lt;/script&gt;\nFormat settings, CABAC : Yes\nFormat settings, ReFrames : 4 frames\nCodec ID : V_MPEG4/ISO/AVC\nDuration : 1h 29mn\nBit rate : 6 114 Kbps\nWidth : 1 920 pixels\nHeight : 1 080 pixels\nDisplay aspect ratio : 16:9\nFrame rate : 25.000 fps\nColor space : YUV\nChroma subsampling : 4:2:0\nBit depth : 8 bits\nScan type : Progressive\nBits/(Pixel*Frame) : 0.118\nStream size : 3.82 GiB (94%)\nWriting library : x264 core 119\nLanguage : English\n     \nAudio\nFormat : AC-3\nFormat/Info : Audio Coding 3\nMode extension : CM (complete main)\nCodec ID : A_AC3\nDuration : 1h 29mn\nBit rate mode : Constant\nBit rate : 256 Kbps\nChannel(s) : 2 channels\nChannel positions : Front: L R\nSampling rate : 48.0 KHz\nBit depth : 16 bits\nCompression mode : Lossy\nStream size : 164 MiB (4%)\nLanguage : Italian\n\nCover\n-----\n &lt;a href=&quot;\nhttp://unhidefreepic.com/?v=d82c8a428a.jpg&quot; rel=&quot;nofollow&quot; target=&quot;_NEW&quot;&gt;\nhttp://unhidefreepic.com/?v=d82c8a428a.jpg&lt;/a&gt;\n &lt;a href=&quot;\nhttp://unhidefreepic.com/?v=e3e0c31792.jpg&quot; rel=&quot;nofollow&quot; target=&quot;_NEW&quot;&gt;\nhttp://unhidefreepic.com/?v=e3e0c31792.jpg&lt;/a&gt;\n\nscreens\n-------\n &lt;a href=&quot;\nhttp://unhidefreepic.com/?v=squirttvan.png&quot; rel=&quot;nofollow&quot; target=&quot;_NEW&quot;&gt;\nhttp://unhidefreepic.com/?v=squirttvan.png&lt;/a&gt;\n &lt;a href=&quot;\nhttp://unhidefreepic.com/?v=squirtoqo.png&quot; rel=&quot;nofollow&quot; target=&quot;_NEW&quot;&gt;\nhttp://unhidefreepic.com/?v=squirtoqo.png&lt;/a&gt;","torrent":{"xt":"urn:btih:36dbe99f4f3c1001fb6fb3d601232803eb55b7cc","amp;dn":"Anal+Buffet+5+XXX+2010+HDTV+1080p+x264-squirtTV","amp;tr":["udp%3A%2F%2Ftracker.openbittorrent.com%3A80","udp%3A%2F%2Fopen.demonii.com%3A1337","udp%3A%2F%2Ftracker.coppersurfer.tk%3A6969","udp%3A%2F%2Fexodus.desync.com%3A6969"],"infoHash":"36dbe99f4f3c1001fb6fb3d601232803eb55b7cc","infoHashBuffer":{"type":"Buffer","data":[54,219,233,159,79,60,16,1,251,111,179,214,1,35,40,3,235,85,183,204]},"announce":[],"urlList":[]}}